<?xml version="1.0" encoding="utf-8"?>
<!-- Generator: Adobe Illustrator 19.2.1, SVG Export Plug-In . SVG Version: 6.00 Build 0)  -->
<svg version="1.1" id="layer" xmlns="http://www.w3.org/2000/svg" xmlns:xlink="http://www.w3.org/1999/xlink" x="0px" y="0px"
	 viewBox="0 0 652 652" style="enable-background:new 0 0 652 652;" xml:space="preserve">
<style type="text/css">
	.st0{fill:#FA3135;}
	.st1{fill:#223170;}
	.st2{fill:url(#SVGID_1_);}
	.st3{fill:url(#SVGID_2_);}
	.st4{fill:#EB282D;}
	.st5{opacity:0.21;fill:url(#SVGID_3_);enable-background:new    ;}
	.st6{opacity:0.21;fill:url(#SVGID_4_);enable-background:new    ;}
	.st7{opacity:0.21;fill:url(#SVGID_5_);enable-background:new    ;}
	.st8{opacity:0.21;fill:url(#SVGID_6_);enable-background:new    ;}
	.st9{opacity:0.21;fill:url(#SVGID_7_);enable-background:new    ;}
	.st10{opacity:0.21;fill:url(#SVGID_8_);enable-background:new    ;}
	.st11{opacity:0.21;fill:url(#SVGID_9_);enable-background:new    ;}
	.st12{fill:url(#SVGID_10_);}
	.st13{opacity:0.5;fill:url(#SVGID_11_);enable-background:new    ;}
	.st14{opacity:0.58;fill:url(#SVGID_12_);enable-background:new    ;}
	.st15{fill:url(#SVGID_13_);}
	.st16{fill:url(#SVGID_14_);}
	.st17{opacity:0.4;fill:#19285A;enable-background:new    ;}
	.st18{fill:url(#SVGID_15_);}
	.st19{fill:url(#SVGID_16_);}
	.st20{fill:url(#SVGID_17_);}
	.st21{fill:url(#SVGID_18_);}
	.st22{fill:url(#SVGID_19_);}
	.st23{fill:url(#SVGID_20_);}
	.st24{fill:url(#SVGID_21_);}
	.st25{fill:url(#SVGID_22_);}
	.st26{fill:url(#SVGID_23_);}
</style>
<path class="st0" d="M139.3,532.6h8.2l14.4,23.4l-0.4-23.4h9.1v37.3h-8.2l-14.2-22.7l0.2,22.6h-9.2V532.6L139.3,532.6z M194.1,531.9
	c10.7,0.2,19.2,9,19,19.7c-0.2,10.7-9,19.2-19.7,19c-10.4-0.2-18.8-8.5-19-18.9c0-2.7,0.5-5.4,1.5-8
	C179,536.4,186.2,531.7,194.1,531.9L194.1,531.9z M194.1,562.2c6.1,0.3,11.3-4.3,11.6-10.4c0.3-6.1-4.3-11.3-10.4-11.6
	c-6.1-0.3-11.3,4.3-11.6,10.4c0,0.2,0,0.3,0,0.5c-0.4,5.8,4,10.7,9.8,11.1c0.3,0,0.5,0,0.8,0H194.1z M224.9,569.9h-8.7v-8.6h8.7
	V569.9z M242.8,569.9h-9.5v-29.3h-6.2v-8h15.6v37.3H242.8z"/>
<path class="st1" d="M-79.5,541h-7.2v-8.4h24.4v8.4h-7.5v28.9h-9.6V541z M-60.2,532.6h9.5v13.9h12.2v-13.9h9.5v37.3h-9.6v-15h-12.2
	v14.9h-9.5V532.6L-60.2,532.6z M-23.7,532.6h20.9v8.4h-11.7v5.8h11.3v8.4h-11.3v6.4h11.7v8.4h-20.9V532.6L-23.7,532.6z M25,532.6
	v22.5c0,2.5,0,7,4.8,7s4.7-4.1,4.7-7v-22.5h9.5v22.5c0.5,4.2-0.9,8.4-3.7,11.5c-2.8,2.7-6.6,4.2-10.4,4c-4,0.1-7.8-1.3-10.8-4
	c-2.9-3.1-4.3-7.3-3.7-11.5v-22.5L25,532.6L25,532.6z M50.3,532.6h9.5v16.8l10.4-16.8h10l-12.4,18.6l13.2,18.7H70l-10.1-16.1v16.2
	h-9.5L50.3,532.6L50.3,532.6z M92.4,543.2c0.4,2.9-1.5,5.6-4.4,6c-0.2,0-0.5,0.1-0.7,0.1h-3.5v-4.5h1.8c1,0.1,2-0.6,2.1-1.7
	c0-0.1,0-0.2,0-0.3V541h-4.1v-8.6h8.8v10.4V543.2z M112.4,543.5c0-1.9-1.6-3.5-3.5-3.5c-1.7-0.1-3.2,1.2-3.3,2.9c0,0,0,0,0,0
	c0,2.2,1,2.7,7.7,5.7s8.7,6.3,8.7,10.7c0,5.4-3.1,11.5-13,11.5c-10.8,0-13.5-7-13.5-11.8v-1.2h9.5c-0.5,2.3,1,4.5,3.2,5
	c0.2,0,0.4,0.1,0.7,0.1c1.9,0,3.5-1.6,3.5-3.5c0-2.5-1.6-3.1-7.3-5.5c-2.6-1-9.1-3.7-9.1-10.7c0-7,7-11,13.1-11
	c3.8-0.1,7.5,1.4,10.1,4.2c1.7,2.1,2.6,4.7,2.5,7.4h-9.3L112.4,543.5z M267,532.6h9.5v13.9h12.2v-13.9h9.5v37.3h-9.5v-15h-12.2v14.9
	H267V532.6L267,532.6z M303.7,532.6h9.5v37.3h-9.5V532.6z M322.8,541h-7.3v-8.4h24.4v8.4h-7.3v28.9h-9.7V541z M356.1,532.6h12.3
	l7.4,24.6l7.3-24.6h12.3v37.3h-8.8l0.3-27.9l-8,28h-6.3l-8-28l0.3,27.9h-8.8v-37.3H356.1z M410.2,532.6v22.5c0,2.5,0,7,4.8,7
	s4.7-4.1,4.7-7v-22.5h9.5v22.5c0.5,4.2-0.9,8.4-3.7,11.5c-2.8,2.7-6.6,4.2-10.4,4c-4,0.1-7.8-1.3-10.7-4c-2.9-3.1-4.3-7.3-3.7-11.5
	v-22.5L410.2,532.6L410.2,532.6z M450,543.5c0-1.9-1.6-3.5-3.5-3.5c-1.7-0.1-3.2,1.2-3.3,2.9c0,0,0,0,0,0c0,2.2,1,2.7,7.7,5.7
	c6.7,3,8.7,6.3,8.7,10.7c0,5.4-3.1,11.5-13,11.5c-10.8,0-13.5-7-13.5-11.8v-1.2h9.8c-0.5,2.3,1,4.5,3.2,5c0.2,0,0.4,0.1,0.7,0.1
	c1.9,0,3.5-1.6,3.5-3.5c0-2.5-1.6-3.1-7.3-5.5c-2.6-1-9.1-3.7-9.1-10.7c0-7,7-11,13.1-11c3.8-0.1,7.5,1.4,10.1,4.2
	c1.7,2.1,2.6,4.7,2.5,7.4H450V543.5z M462.9,532.6h9.5v37.3h-9.5V532.6z M514.7,555.9c-2.1,8.7-9.9,14.8-18.9,14.7
	c-10.7,0-19.4-8.7-19.4-19.3c0-10.7,8.7-19.4,19.3-19.4c0,0,0,0,0,0c9.1-0.2,17,6,19,14.9h-10c-1.3-3.9-4.9-6.5-9-6.5
	c-5.8,0.2-10.2,5.1-10,10.9c0,0,0,0,0,0c-0.4,5.8,4,10.7,9.8,11.1c0.1,0,0.2,0,0.3,0c4-0.1,7.5-2.6,9-6.3h10L514.7,555.9z
	 M546.9,543.5c0-1.9-1.6-3.5-3.5-3.5c-1.7-0.1-3.2,1.2-3.3,2.9c0,0,0,0,0,0c0,2.2,1,2.7,7.7,5.7s8.7,6.3,8.7,10.7
	c0,5.4-3.1,11.5-13,11.5c-10.8,0-13.5-7-13.5-11.8v-1.2h9.5c-0.5,2.3,1,4.5,3.2,5c0.2,0,0.4,0.1,0.7,0.1c1.9,0,3.5-1.6,3.5-3.5
	c0-2.5-1.6-3.1-7.3-5.5c-2.6-1-9.1-3.7-9.1-10.7c0-7,7-11,13.1-11c3.8-0.1,7.5,1.4,10.1,4.2c1.7,2.1,2.6,4.7,2.5,7.4h-9.4
	L546.9,543.5z M565.2,541H558v-8.4h24.4v8.4H575v28.9h-9.5V541H565.2z M590.3,564.5l-2,5.4h-10.2l15-37.3h7.5l14.8,37.3H605
	l-1.8-5.4H590.3z M593,556.9h7.8l-3.8-12.7L593,556.9z M621,541h-7.3v-8.4h24.4v8.4h-7.3v28.9h-9.5V541H621z M641.2,532.6h9.5v37.3
	h-9.5V532.6z M674,531.9c10.7,0.2,19.2,9,19,19.7s-9,19.2-19.7,19c-10.4-0.2-18.8-8.5-19-18.9c0-2.7,0.5-5.4,1.5-8
	C658.9,536.4,666.1,531.7,674,531.9L674,531.9z M674,562.2c6.1,0.3,11.3-4.3,11.6-10.4s-4.3-11.3-10.4-11.6
	c-6.1-0.3-11.3,4.3-11.6,10.4c0,0.2,0,0.3,0,0.5c-0.4,5.8,4,10.7,9.8,11.1c0.3,0,0.6,0,0.9,0H674z M697.3,532.6h8.2l14.4,23.4
	l-0.4-23.4h9.1v37.3h-8.3l-14.2-22.7l0.2,22.6h-9.1V532.6L697.3,532.6z"/>
<linearGradient id="SVGID_1_" gradientUnits="userSpaceOnUse" x1="258.3687" y1="319.5744" x2="759.6226" y2="207.4532" gradientTransform="matrix(1 0 0 -1 0 652)">
	<stop  offset="0" style="stop-color:#283287"/>
	<stop  offset="0.25" style="stop-color:#2D378C"/>
	<stop  offset="0.56" style="stop-color:#3B469A"/>
	<stop  offset="0.9" style="stop-color:#525FB1"/>
	<stop  offset="1" style="stop-color:#5A68B9"/>
</linearGradient>
<path class="st2" d="M557.5,347.6l-13.9,62.7l-18.3-62.9l-27.2-0.1l3,96.8l19.6-0.4l-3-72.2l0.3-0.2l19.9,72l13.8-0.3l14.7-71.8
	l0.2,0.2l1.9,71.2l18.8-0.4l-3.5-94.4L557.5,347.6L557.5,347.6z"/>
<linearGradient id="SVGID_2_" gradientUnits="userSpaceOnUse" x1="254.9163" y1="304.126" x2="756.1702" y2="192.0049" gradientTransform="matrix(1 0 0 -1 0 652)">
	<stop  offset="0" style="stop-color:#283287"/>
	<stop  offset="0.25" style="stop-color:#2D378C"/>
	<stop  offset="0.56" style="stop-color:#3B469A"/>
	<stop  offset="0.9" style="stop-color:#525FB1"/>
	<stop  offset="1" style="stop-color:#5A68B9"/>
</linearGradient>
<path class="st3" d="M493.6,385.4l-24.5,0.1l-0.5-16.6l25.3,0l-0.7-21.6l-46.2-0.2l2.6,98.2l21-0.5l-1.1-37.3l24.5-0.3L493.6,385.4z
	"/>
<path class="st4" d="M471.3,248.7l17.5,0.5l2.6,82.3h22.4l-2.5-81.6l17,0.5l-0.7-20.6l-56.9-2.4L471.3,248.7L471.3,248.7z
	 M277.8,289.3l-27.4-0.5c-0.6,1.6-1.4,3.1-2.2,4.6c-1.3,2.2-2.8,4.3-4.5,6.2c-2.1,2.3-4.6,4.1-7.3,5.4c-3.3,1.6-7,2.3-10.7,2.2
	c-4.1-0.1-8.1-1.1-11.7-3.1c-3.5-1.9-6.6-4.5-9-7.7c-2.5-3.2-4.4-6.9-5.7-10.7c-1.4-4-2.1-8.2-2.1-12.4c0-4,0.5-8,1.7-11.8
	c1.1-3.8,2.9-7.3,5.3-10.4c2.3-3,5.3-5.5,8.7-7.2c3.7-1.8,7.8-2.6,11.8-2.3c3.3,0.1,6.6,0.8,9.6,2.2c2.7,1.2,5.2,2.8,7.3,4.8
	c2,1.9,3.7,4.1,5.2,6.4c1.3,2.1,2.4,4.3,3.2,6.6l27.4,0.7c-1-5-2.7-9.7-5-14.2c-2.8-5.3-6.3-10.2-10.4-14.6
	c-4.6-4.8-10-8.7-15.9-11.6c-6.7-3.2-14.1-5-21.5-5.2c-7.8-0.4-15.6,1-22.8,4c-6.7,2.9-12.6,7.2-17.4,12.6
	c-4.7,5.4-8.4,11.6-10.8,18.4c-2.4,6.8-3.6,14-3.5,21.2c0.1,7.6,1.5,15.1,4.3,22.2c2.7,7,6.7,13.4,11.7,19c5,5.6,11,10.1,17.8,13.3
	c7.1,3.3,14.8,5,22.6,5.1c6.1,0.1,12.2-0.9,17.9-3c5.6-2,10.7-4.9,15.2-8.7c4.6-3.9,8.5-8.5,11.5-13.6
	C274.2,301.5,276.5,295.5,277.8,289.3L277.8,289.3z M466.3,227.2l-23.8-1.1l2.9,105.4h23.8C469.2,331.5,466.3,227.2,466.3,227.2z
	 M651.8,309.8l-24.2-0.4l-3-75.7l-21.1-0.8l3.8,98.7l45.4,0L651.8,309.8L651.8,309.8z M326.8,221.4l-20-0.9l-38.9,110.1l27.9,0.2
	L301,314l34.8,0.5l5.6,16.4h27L326.8,221.4z M307.7,292l9.6-37.1h0.3l10.9,37.5L307.7,292z M566.8,231.4l-16.2-0.9l-32,101h23.9
	l4.2-15l29.6,0.4l4.8,14.7h23.1L566.8,231.4z M552,296.4l7.6-33.7h0.3l9.9,34L552,296.4z M439,253.2c-0.5-2.6-1.3-5.1-2.3-7.6
	c-0.9-2.4-2.1-4.8-3.5-7c-1.4-2.2-3.1-4.1-5-5.9c-1.3-1.3-2.7-2.5-4.3-3.5c-1.8-1.1-3.7-2-5.7-2.6c-2.6-0.8-5.3-1.4-8-1.8
	c-3.7-0.4-7.5-0.6-11.3-0.7l-31.3-1.3l2.6,108l23.7,0.2l-1.3-33.9h10.4c3.2,0.1,6.5,0,9.7-0.4c2.5-0.3,4.9-0.8,7.2-1.6
	c2-0.7,3.9-1.6,5.6-2.8c1.7-1.2,3.4-2.5,4.9-4c1.5-1.5,2.9-3.3,3.9-5.2c1.2-2.1,2.2-4.4,3-6.7c1.7-5.1,2.4-10.4,2.3-15.7
	C439.7,258.2,439.5,255.7,439,253.2L439,253.2z M415.4,268.3c-0.9,1.6-2.3,2.9-4,3.7c-1.6,0.7-3.2,1.1-4.9,1.3
	c-1.4,0.1-2.9,0.1-4.3,0l-10-0.2l-0.6-25.5l9,0.3c1.6,0,3.1,0.1,4.7,0.3c1.8,0.2,3.6,0.7,5.3,1.5c1.8,0.8,3.3,2.2,4.4,3.8
	C417.3,258.1,417.5,263.5,415.4,268.3L415.4,268.3z"/>
<linearGradient id="SVGID_3_" gradientUnits="userSpaceOnUse" x1="480.7917" y1="448.6537" x2="503.5015" y2="404.9756" gradientTransform="matrix(1 0 0 -1 0 652)">
	<stop  offset="0" style="stop-color:#FFFFFF;stop-opacity:0"/>
	<stop  offset="1" style="stop-color:#FFFFFF"/>
</linearGradient>
<path class="st5" d="M511.3,249.9l17,0.5l-0.7-20.6l-57-2.4l0.7,21.4l17.4,0.5l0.6,18c7.4-2.3,14.8-4.5,22.3-6.7L511.3,249.9z"/>
<linearGradient id="SVGID_4_" gradientUnits="userSpaceOnUse" x1="250.3533" y1="328.1055" x2="273.098" y2="284.4273" gradientTransform="matrix(1 0 0 -1 0 652)">
	<stop  offset="0" style="stop-color:#FFFFFF;stop-opacity:0"/>
	<stop  offset="1" style="stop-color:#FFFFFF"/>
</linearGradient>
<path class="st6" d="M185.9,314c5,5.6,11,10.1,17.8,13.3c7.1,3.3,14.8,5,22.6,5.1c6.1,0.1,12.2-0.9,17.9-3c5.6-2,10.7-4.9,15.2-8.7
	c4.6-3.9,8.5-8.5,11.5-13.6c3.3-5.5,5.6-11.5,7-17.7l-27.4-0.5c-0.6,1.6-1.4,3.1-2.2,4.6c-1.3,2.2-2.8,4.3-4.5,6.2
	c-2.1,2.3-4.6,4.1-7.3,5.4c-3.3,1.6-7,2.3-10.7,2.2c-4.2,0-8.2-1.1-11.9-3.1c-3.5-1.9-6.6-4.5-9-7.7c-2.5-3.2-4.4-6.9-5.7-10.7
	c-1.4-4-2.1-8.2-2.1-12.4c0-4,0.5-8,1.7-11.8c1.1-3.8,2.9-7.3,5.3-10.4c2.3-3,5.3-5.5,8.7-7.2c3.7-1.8,7.8-2.6,11.8-2.3
	c3.3,0.1,6.6,0.8,9.6,2.2c2.7,1.2,5.2,2.8,7.3,4.8c2,1.9,3.7,4.1,5.2,6.4c1.3,2.1,2.4,4.3,3.2,6.6l27.4,0.7c-1-5-2.7-9.7-5-14.2
	c-2.8-5.3-6.3-10.2-10.4-14.6c-4.6-4.8-10-8.7-15.9-11.6c-6.7-3.2-14.1-5-21.5-5.2c-7.8-0.4-15.6,1-22.8,4
	c-6.7,2.9-12.6,7.2-17.4,12.6c-4.7,5.4-8.4,11.6-10.8,18.4c-2.4,6.8-3.6,14-3.5,21.2c0.1,7.6,1.5,15.1,4.3,22.2
	C176.9,302,180.8,308.4,185.9,314z"/>
<linearGradient id="SVGID_5_" gradientUnits="userSpaceOnUse" x1="439.5108" y1="427.1431" x2="462.2207" y2="383.465" gradientTransform="matrix(1 0 0 -1 0 652)">
	<stop  offset="0" style="stop-color:#FFFFFF;stop-opacity:0"/>
	<stop  offset="1" style="stop-color:#FFFFFF"/>
</linearGradient>
<path class="st7" d="M466.3,227.2l-23.7-1.1l1.5,56.6c7.8-2.9,15.6-5.7,23.5-8.4L466.3,227.2z"/>
<linearGradient id="SVGID_6_" gradientUnits="userSpaceOnUse" x1="572.0261" y1="496.1695" x2="594.7708" y2="452.4913" gradientTransform="matrix(1 0 0 -1 0 652)">
	<stop  offset="0" style="stop-color:#FFFFFF;stop-opacity:0"/>
	<stop  offset="1" style="stop-color:#FFFFFF"/>
</linearGradient>
<path class="st8" d="M624.5,233.7l-21.1-0.8l0.2,6.7c7-1.2,13.9-2.4,20.9-3.5L624.5,233.7z"/>
<linearGradient id="SVGID_7_" gradientUnits="userSpaceOnUse" x1="306.7187" y1="358.048" x2="329.4633" y2="314.3699" gradientTransform="matrix(1 0 0 -1 0 652)">
	<stop  offset="0" style="stop-color:#FFFFFF;stop-opacity:0"/>
	<stop  offset="1" style="stop-color:#FFFFFF"/>
</linearGradient>
<path class="st9" d="M326.8,221.4l-20-0.9l-38.9,110.1l27.9,0.2L301,314l34.8,0.5l4.9,14.3c7.5-3.9,15-7.7,22.6-11.5L326.8,221.4z
	 M307.7,292l9.6-37.1h0.3l10.9,37.5L307.7,292z"/>
<linearGradient id="SVGID_8_" gradientUnits="userSpaceOnUse" x1="523.59" y1="470.9228" x2="546.3347" y2="427.2446" gradientTransform="matrix(1 0 0 -1 0 652)">
	<stop  offset="0" style="stop-color:#FFFFFF;stop-opacity:0"/>
	<stop  offset="1" style="stop-color:#FFFFFF"/>
</linearGradient>
<path class="st10" d="M566.8,231.4l-16.2-0.8l-7,21.6c9.3-2.3,18.7-4.5,28.3-6.5L566.8,231.4z"/>
<linearGradient id="SVGID_9_" gradientUnits="userSpaceOnUse" x1="388.579" y1="400.6698" x2="411.3237" y2="356.9917" gradientTransform="matrix(1 0 0 -1 0 652)">
	<stop  offset="0" style="stop-color:#FFFFFF;stop-opacity:0"/>
	<stop  offset="1" style="stop-color:#FFFFFF"/>
</linearGradient>
<path class="st11" d="M392.7,297.2H407c8.2-3.5,16.4-6.8,24.7-10c1.1-1.2,2-2.5,2.8-3.9c1.2-2.1,2.2-4.4,3-6.7
	c1.7-5.1,2.4-10.4,2.3-15.7c-0.1-2.7-0.4-5.3-0.9-7.9c-0.5-2.6-1.3-5.1-2.3-7.6c-0.9-2.4-2.1-4.8-3.5-7c-1.4-2.2-3.1-4.1-5-5.9
	c-1.3-1.3-2.7-2.5-4.3-3.5c-1.8-1.1-3.7-2-5.7-2.6c-2.6-0.8-5.3-1.4-8-1.8c-3.7-0.4-7.5-0.6-11.3-0.7l-31.3-1.3l2.2,91.3
	c7.7-3.7,15.4-7.2,23.2-10.7L392.7,297.2z M391.5,247.6l9,0.3c1.6,0,3.1,0.1,4.7,0.3c1.8,0.2,3.6,0.7,5.3,1.5
	c1.8,0.8,3.3,2.2,4.4,3.8c2.4,4.5,2.6,10,0.4,14.6c-0.9,1.6-2.3,2.9-4,3.7c-1.6,0.7-3.2,1.1-4.9,1.3c-1.4,0.1-2.9,0.1-4.3,0l-10-0.2
	L391.5,247.6z"/>
<linearGradient id="SVGID_10_" gradientUnits="userSpaceOnUse" x1="196.4506" y1="569.3824" x2="196.4506" y2="448.7973" gradientTransform="matrix(1 0 0 -1 0 652)">
	<stop  offset="0" style="stop-color:#4B50B4"/>
	<stop  offset="0.5" style="stop-color:#3646A0"/>
	<stop  offset="1" style="stop-color:#19285A"/>
</linearGradient>
<path class="st12" d="M93.3,225.2v-0.6c-0.9-69.1,51.7-89.3,51.7-89.3l154.6-64.4c-2.4,1.5-6.3,4.4-6.3,4.4l-0.6,0.4
	c-2.1,1.6-4,3.3-5.9,5.1l-0.8,0.8l-0.6,0.6c-0.4,0.4-0.8,0.9-1.2,1.4c-1.5,1.6-2.9,3.2-4.2,4.9l-1.8,2.4c-1.4,1.8-2.6,3.8-3.8,5.8
	c-0.3,0.5-0.7,0.9-0.9,1.5c-0.2,0.5,0,0.3-0.2,0.5c-1.4,2.5-2.7,5.1-3.8,7.8c0,0,0,0.4-0.2,0.6s-0.5,1.3-0.7,2
	c-0.9,2.3-1.6,4.7-2.3,7c0,0.5-0.3,0.9-0.4,1.3s0,1.2-0.3,1.7c-0.5,2.3-0.9,4.6-1.3,7c0,1-0.3,2-0.4,3c-0.4,3.4-0.5,6.7-0.5,10.1
	l0.7,41.8l-32.9-1.5c-12.3-0.6-24.5,1.3-36.1,5.6L93.3,225.2z"/>
<linearGradient id="SVGID_11_" gradientUnits="userSpaceOnUse" x1="105.8433" y1="520.5841" x2="280.0683" y2="520.5841" gradientTransform="matrix(1 0 0 -1 0 652)">
	<stop  offset="0" style="stop-color:#FFFFFF;stop-opacity:0"/>
	<stop  offset="0.14" style="stop-color:#FFFFFF;stop-opacity:1.000000e-002"/>
	<stop  offset="0.27" style="stop-color:#FFFFFF;stop-opacity:6.000000e-002"/>
	<stop  offset="0.39" style="stop-color:#FFFFFF;stop-opacity:0.13"/>
	<stop  offset="0.51" style="stop-color:#FFFFFF;stop-opacity:0.23"/>
	<stop  offset="0.63" style="stop-color:#FFFFFF;stop-opacity:0.36"/>
	<stop  offset="0.74" style="stop-color:#FFFFFF;stop-opacity:0.53"/>
	<stop  offset="0.86" style="stop-color:#FFFFFF;stop-opacity:0.72"/>
	<stop  offset="0.97" style="stop-color:#FFFFFF;stop-opacity:0.93"/>
	<stop  offset="1" style="stop-color:#FFFFFF"/>
</linearGradient>
<path class="st13" d="M145,135.2h-0.7l-0.8,0.7c-21.4,10.6-37.6,29.5-44.8,52.2c-0.4,1.3-0.8,2.6-1.2,3.9
	c13.1-8.5,27-15.7,41.6-21.6c0,0,77.2-32.6,100.1-37.8c8.1-1.6,16.4-2.7,24.7-3.2v-1c0-1,0.3-2,0.4-3c0.3-2.3,0.7-4.6,1.3-7
	c0-0.6,0-1.2,0.3-1.7s0.3-0.9,0.4-1.3c0.7-2.4,1.4-4.8,2.3-7c0.2-0.7,0.5-1.3,0.7-2c0.2-0.7,0-0.4,0.2-0.6c1.1-2.7,2.4-5.3,3.8-7.8
	c0,0,0-0.3,0.2-0.5c0.2-0.1,0.7-0.9,0.9-1.5c1.2-2,2.4-3.9,3.8-5.8l1.8-2.2c1.3-1.7,2.7-3.3,4.2-4.9c0.4-0.5,0.8-0.9,1.2-1.4
	l0.6-0.6l0.8-0.8c1.9-1.8,3.8-3.5,5.9-5.1l0.6-0.3c0,0,3.9-2.9,6.3-4.4L145,135.2z"/>
<linearGradient id="SVGID_12_" gradientUnits="userSpaceOnUse" x1="140.7062" y1="520.0615" x2="144.3635" y2="458.933" gradientTransform="matrix(1 0 0 -1 0 652)">
	<stop  offset="1.000000e-002" style="stop-color:#FFFFFF;stop-opacity:0"/>
	<stop  offset="9.000000e-002" style="stop-color:#FFFFFF;stop-opacity:4.000000e-002"/>
	<stop  offset="0.23" style="stop-color:#FFFFFF;stop-opacity:0.15"/>
	<stop  offset="0.4" style="stop-color:#FFFFFF;stop-opacity:0.32"/>
	<stop  offset="0.61" style="stop-color:#FFFFFF;stop-opacity:0.57"/>
	<stop  offset="0.85" style="stop-color:#FFFFFF;stop-opacity:0.87"/>
	<stop  offset="0.94" style="stop-color:#FFFFFF"/>
</linearGradient>
<path class="st14" d="M97.2,192.7c14-9.3,29-17,44.7-23.1c1.6-11.4,7.5-27.9,45-51.8l-41.8,17.4C121.4,146.3,103.8,167.3,97.2,192.7
	z"/>
<linearGradient id="SVGID_13_" gradientUnits="userSpaceOnUse" x1="315.1921" y1="284.1779" x2="329.2291" y2="184.2127" gradientTransform="matrix(1 0 0 -1 0 652)">
	<stop  offset="0" style="stop-color:#4B50B4"/>
	<stop  offset="0.5" style="stop-color:#3646A0"/>
	<stop  offset="1" style="stop-color:#19285A"/>
</linearGradient>
<path class="st15" d="M188.7,393.5c0.3,22.4,3.2,88.1,68.6,89.9c67.4,1.9,196.5,2.7,206.1,2.8c-8.7-0.4-17.2-2.3-25.3-5.5
	c-0.9-0.5-1.9-1-2.9-1.4c-11.1-4.7-21.1-11.7-29.5-20.3c-8.7-9-15.7-19.5-20.6-31c-5.1-12.1-7.9-25.1-8.2-38.3l-0.5-20.6
	L188.7,393.5z"/>
<linearGradient id="SVGID_14_" gradientUnits="userSpaceOnUse" x1="327.4038" y1="143.6075" x2="327.4038" y2="413.8269" gradientTransform="matrix(1 0 0 -1 0 652)">
	<stop  offset="0" style="stop-color:#FFFFFF;stop-opacity:0"/>
	<stop  offset="1" style="stop-color:#FFFFFF"/>
</linearGradient>
<path class="st16" d="M438.2,480.6c-0.9-0.5-1.9-1-2.9-1.4c-11.1-4.7-21.1-11.7-29.5-20.3c-1.4-1.4-2.6-2.8-3.9-4.3
	c-70.2,0.9-134.4-2.7-171.8-11c-26.8-6-33.3-13.9-38.8-19.7c4.9,26.4,19.9,58.2,66.2,59.5c67.4,1.7,196.5,2.7,206.1,2.8
	C454.9,485.8,446.3,483.9,438.2,480.6z"/>
<path class="st17" d="M435.3,479.2c-11.1-4.7-21.1-11.7-29.5-20.3c-1.4-1.4-2.6-2.8-3.9-4.3c-57.4,0.7-108.6-1.6-148.2-7
	c0.3,5.3,6.8,12.9,40.9,20.9c25.1,5.9,47.5,11.9,73.1,16.8c48.2,0.6,90.6,0.8,96,0.9c-8.7-0.4-17.2-2.3-25.3-5.5
	C437.4,480,436.4,479.6,435.3,479.2z"/>
<linearGradient id="SVGID_15_" gradientUnits="userSpaceOnUse" x1="160.517" y1="385.4453" x2="179.3954" y2="306.4832" gradientTransform="matrix(1 0 0 -1 0 652)">
	<stop  offset="0" style="stop-color:#4B50B4"/>
	<stop  offset="0.5" style="stop-color:#3646A0"/>
	<stop  offset="1" style="stop-color:#19285A"/>
</linearGradient>
<path class="st18" d="M93.5,225l-60.2,26.6c0,0-53.3,21.9-46.6,85.9c0.8,11.7,4.3,23,10.1,33.1c3.8,6.9,8.6,13.2,14.3,18.7
	c7.3,7.1,15.9,12.6,25.4,16.4c9.6,4.4,20.1,6.4,30.7,5.7c27.2-0.5,309.7-42.7,309.7-42.7l-143.1,0.2c-12.8,0-25.4-2.6-37.2-7.6
	c-11.6-4.9-22.1-12-31-20.9c-9-9-16.2-19.6-21.2-31.3c-5.2-12-7.9-25-8-38.1c0-3,0-5.9,0.4-8.8l0.2-2.3c0.3-2.6,0.7-5.1,1.1-7.6v-1
	c0.5-2.3,1-4.5,1.6-6.7c0-0.4,0.3-0.8,0.4-1.3c0.3-1.2,0.8-2.4,1.2-3.5c0.4-1.1,0.5-1.7,0.8-2.5c0.5-1.3,0.8-2.5,1.4-3.8
	c4.9-11.3,12-21.5,20.9-29.9c8.7-8.4,19-14.9,30.3-19.2L93.5,225z"/>
<linearGradient id="SVGID_16_" gradientUnits="userSpaceOnUse" x1="68.1387" y1="353.4298" x2="68.1387" y2="505.5371" gradientTransform="matrix(1 0 0 -1 0 652)">
	<stop  offset="1.000000e-002" style="stop-color:#FFFFFF;stop-opacity:0"/>
	<stop  offset="9.000000e-002" style="stop-color:#FFFFFF;stop-opacity:4.000000e-002"/>
	<stop  offset="0.23" style="stop-color:#FFFFFF;stop-opacity:0.15"/>
	<stop  offset="0.4" style="stop-color:#FFFFFF;stop-opacity:0.32"/>
	<stop  offset="0.61" style="stop-color:#FFFFFF;stop-opacity:0.57"/>
	<stop  offset="0.85" style="stop-color:#FFFFFF;stop-opacity:0.87"/>
	<stop  offset="0.94" style="stop-color:#FFFFFF"/>
</linearGradient>
<path class="st19" d="M38.1,264.1c37.5-14.6,80.6-31.3,80.6-31.3c7.2-11.3,16.5-21.1,27.4-28.8l-52.5,20.9l-60.3,26.8
	c-20.4,9.7-36,27.3-43.1,48.8C3.3,281.3,13.2,273.7,38.1,264.1z"/>
<linearGradient id="SVGID_17_" gradientUnits="userSpaceOnUse" x1="111.618" y1="246.0498" x2="103.0495" y2="302.9637" gradientTransform="matrix(1 0 0 -1 0 652)">
	<stop  offset="1.000000e-002" style="stop-color:#FFFFFF;stop-opacity:0"/>
	<stop  offset="9.000000e-002" style="stop-color:#FFFFFF;stop-opacity:4.000000e-002"/>
	<stop  offset="0.23" style="stop-color:#FFFFFF;stop-opacity:0.15"/>
	<stop  offset="0.4" style="stop-color:#FFFFFF;stop-opacity:0.32"/>
	<stop  offset="0.61" style="stop-color:#FFFFFF;stop-opacity:0.57"/>
	<stop  offset="0.85" style="stop-color:#FFFFFF;stop-opacity:0.87"/>
	<stop  offset="0.94" style="stop-color:#FFFFFF"/>
</linearGradient>
<path class="st20" d="M205,393.9c-18.8-0.8-62-2.8-78.8-20.4C21.8,397.2,15.3,390.2,5.3,383.3c1.8,2.1,3.7,4.2,5.8,6.1
	c7.3,7.1,15.9,12.6,25.4,16.4c9.6,4.4,20.1,6.4,30.7,5.7c12.5-0.2,77.9-9.1,145.4-18.7L205,393.9z"/>
<linearGradient id="SVGID_18_" gradientUnits="userSpaceOnUse" x1="306.7801" y1="535.963" x2="808.0339" y2="423.8418" gradientTransform="matrix(1 0 0 -1 0 652)">
	<stop  offset="0" style="stop-color:#283287"/>
	<stop  offset="0.25" style="stop-color:#2D378C"/>
	<stop  offset="0.56" style="stop-color:#3B469A"/>
	<stop  offset="0.9" style="stop-color:#525FB1"/>
	<stop  offset="1" style="stop-color:#5A68B9"/>
</linearGradient>
<path class="st21" d="M577.8,161.1c2.5,0.2,5,0.9,7.2,2.1c2.5,1.3,4.8,3,6.6,5.2c2.1,2.4,3.8,5.2,4.9,8.2c1.3,3.6,2,7.3,2.1,11.1
	c0.1,3.9-0.5,7.8-1.7,11.5c-1.1,3.2-2.9,6.2-5.2,8.6c-2.2,2.3-4.9,4.2-7.8,5.4c-3.1,1.2-6.4,1.7-9.7,1.6c-2-0.1-4-0.4-6-0.9
	c-1.9-0.5-3.8-1.2-5.6-2.2c-3.6-1.9-6.7-4.7-9-8.1c-1.1-1.4-2-2.9-2.7-4.6c-0.8-1.6-1.4-3.3-1.8-5c-0.5-1.7-0.8-3.3-1-5.1
	c-0.2-1.6-0.4-3.1-0.4-4.7c0-1.9,0.1-3.7,0.4-5.5c0.3-1.7,0.7-3.5,1.2-5.2c0.5-1.6,1.1-3.2,1.8-4.7c0.7-1.5,1.5-3,2.3-4.4l15.8-26
	l19.2,1.5l-13.9,21.3l0.4,0.3c0.2-0.1,0.4-0.2,0.6-0.2h1.6L577.8,161.1z M573.3,197.8c1.2,0.1,2.4-0.1,3.5-0.5
	c1.1-0.4,2.1-1.1,2.9-1.9c0.8-0.9,1.5-1.9,1.9-3.1c0.5-1.3,0.7-2.7,0.7-4c0-1.3-0.3-2.5-0.7-3.7c-0.4-1.3-1-2.4-1.8-3.5
	c-0.8-1-1.8-1.9-2.9-2.6c-1.2-0.7-2.6-1.1-4-1.2c-2.4-0.2-4.8,0.8-6.4,2.6c-0.8,0.9-1.4,1.9-1.7,3.1c-0.4,1.2-0.6,2.5-0.6,3.8
	c0,1.6,0.3,3.2,0.9,4.6c0.5,1.3,1.2,2.5,2.2,3.5c0.8,0.9,1.8,1.6,2.9,2.1C571.1,197.4,572.2,197.7,573.3,197.8"/>
<linearGradient id="SVGID_19_" gradientUnits="userSpaceOnUse" x1="304.9228" y1="527.6744" x2="806.1768" y2="415.588" gradientTransform="matrix(1 0 0 -1 0 652)">
	<stop  offset="0" style="stop-color:#283287"/>
	<stop  offset="0.25" style="stop-color:#2D378C"/>
	<stop  offset="0.56" style="stop-color:#3B469A"/>
	<stop  offset="0.9" style="stop-color:#525FB1"/>
	<stop  offset="1" style="stop-color:#5A68B9"/>
</linearGradient>
<path class="st22" d="M518.8,132.7c2.6,0.3,5.2,0.9,7.6,2c3,1.3,5.8,3,8.2,5.3c2.8,2.6,5.1,5.8,6.6,9.3c1.9,4.4,2.9,9.1,2.9,13.9
	l0.4,21.1c0.2,4.5-0.6,9-2.2,13.2c-1.3,3.3-3.3,6.2-5.9,8.6c-2.3,2.1-5,3.6-8,4.6c-2.7,0.9-5.6,1.2-8.4,1.1
	c-2.8-0.2-5.6-0.8-8.3-1.9c-3.1-1.3-6-3.1-8.5-5.4c-2.9-2.6-5.2-5.8-6.7-9.4c-1.9-4.4-2.9-9.1-2.9-13.9l-0.3-21.5
	c-0.2-4.7,0.7-9.4,2.5-13.8c1.4-3.2,3.6-6.1,6.3-8.3c2.5-1.9,5.3-3.3,8.4-4.1C513.3,132.7,516.1,132.5,518.8,132.7z M527.3,183.8
	l-0.3-22.2c0.1-0.9,0.1-1.9,0-2.8c-0.1-1.3-0.5-2.6-0.9-3.9c-0.5-1.3-1.3-2.5-2.4-3.5c-1.3-1.1-2.9-1.7-4.6-1.8
	c-1.4-0.2-2.9,0.1-4.1,0.9c-1,0.7-1.9,1.6-2.4,2.8c-0.5,1.1-0.9,2.3-1.1,3.5c-0.2,1.2-0.3,2.3-0.2,3.5l0.3,22.3
	c0,1.3,0.1,2.5,0.3,3.8c0.2,1.3,0.7,2.6,1.3,3.8c0.6,1.2,1.4,2.2,2.5,3c1.2,0.8,2.7,1.3,4.1,1.4c1.6,0.2,3.3-0.3,4.6-1.2
	c1.1-0.8,1.9-2,2.3-3.2c0.4-1.2,0.7-2.5,0.8-3.8c0.1-0.9,0.1-1.8,0-2.8"/>
<linearGradient id="SVGID_20_" gradientUnits="userSpaceOnUse" x1="303.509" y1="521.452" x2="804.7629" y2="409.3308" gradientTransform="matrix(1 0 0 -1 0 652)">
	<stop  offset="0" style="stop-color:#283287"/>
	<stop  offset="0.25" style="stop-color:#2D378C"/>
	<stop  offset="0.56" style="stop-color:#3B469A"/>
	<stop  offset="0.9" style="stop-color:#525FB1"/>
	<stop  offset="1" style="stop-color:#5A68B9"/>
</linearGradient>
<path class="st23" d="M487.6,131.7l1.1,77.3l-18-0.9l-0.8-61.2l-11.6-0.8l-0.2-16.7C458.1,129.3,487.6,131.7,487.6,131.7z"/>
<linearGradient id="SVGID_21_" gradientUnits="userSpaceOnUse" x1="300.4456" y1="507.6669" x2="801.6996" y2="395.5805" gradientTransform="matrix(1 0 0 -1 0 652)">
	<stop  offset="0" style="stop-color:#283287"/>
	<stop  offset="0.25" style="stop-color:#2D378C"/>
	<stop  offset="0.56" style="stop-color:#3B469A"/>
	<stop  offset="0.9" style="stop-color:#525FB1"/>
	<stop  offset="1" style="stop-color:#5A68B9"/>
</linearGradient>
<path class="st24" d="M463,168.6l0.2,17.3l-42-2.5l-0.2-17.6L463,168.6z"/>
<linearGradient id="SVGID_22_" gradientUnits="userSpaceOnUse" x1="298.2632" y1="497.8795" x2="799.5172" y2="385.7931" gradientTransform="matrix(1 0 0 -1 0 652)">
	<stop  offset="0" style="stop-color:#283287"/>
	<stop  offset="0.25" style="stop-color:#2D378C"/>
	<stop  offset="0.56" style="stop-color:#3B469A"/>
	<stop  offset="0.9" style="stop-color:#525FB1"/>
	<stop  offset="1" style="stop-color:#5A68B9"/>
</linearGradient>
<path class="st25" d="M349.6,129.6c1.3,1.4,2.3,3,3.2,4.7c0.8,1.6,1.5,3.4,2,5.2c0.5,1.8,0.9,3.6,1.1,5.4c0.2,1.8,0.3,3.6,0.3,5.4
	c0,2.1-0.2,4.2-0.6,6.2c-0.4,1.9-0.9,3.8-1.6,5.6c-0.7,1.8-1.4,3.5-2.3,5.2c-0.9,1.6-1.8,3.2-2.8,4.7L329.6,201l-23.6-1.4l17.4-24.1
	v-0.2h-3.9c-3-0.2-6-1-8.7-2.3c-3.1-1.4-5.8-3.4-8.2-5.9c-2.6-2.7-4.6-5.8-6.1-9.2c-1.6-3.9-2.4-8.1-2.4-12.4
	c-0.1-4.4,0.8-8.7,2.4-12.7c1.5-3.6,3.8-6.8,6.7-9.4c2.9-2.5,6.2-4.4,9.9-5.5c3.8-1.2,7.8-1.6,11.8-1.3c2.4,0.2,4.9,0.6,7.2,1.3
	c2.3,0.6,4.5,1.5,6.7,2.5c2.1,1,4.1,2.3,5.9,3.8C346.7,125.9,348.3,127.7,349.6,129.6z M325.5,157.5c1.5,0.1,3.1-0.1,4.5-0.6
	c1.3-0.4,2.5-1.2,3.5-2.1c0.9-0.9,1.7-2.1,2.2-3.3c0.5-1.3,0.7-2.7,0.7-4c0-1.7-0.3-3.4-1-5c-0.6-1.4-1.5-2.7-2.5-3.7
	c-1-1-2.2-1.8-3.5-2.4c-1.2-0.6-2.5-0.9-3.9-1c-1.4-0.1-2.8,0.1-4.1,0.5c-1.3,0.4-2.5,1.1-3.5,2c-1,0.9-1.8,2-2.4,3.3
	c-0.6,1.4-0.9,2.9-0.9,4.4c0,1.4,0.3,2.8,0.7,4.1c0.5,1.4,1.2,2.6,2.1,3.7c1,1.2,2.1,2.1,3.5,2.8c1.5,0.8,3.1,1.2,4.7,1.3"/>
<linearGradient id="SVGID_23_" gradientUnits="userSpaceOnUse" x1="300.479" y1="507.7996" x2="801.7329" y2="395.7132" gradientTransform="matrix(1 0 0 -1 0 652)">
	<stop  offset="0" style="stop-color:#283287"/>
	<stop  offset="0.25" style="stop-color:#2D378C"/>
	<stop  offset="0.56" style="stop-color:#3B469A"/>
	<stop  offset="0.9" style="stop-color:#525FB1"/>
	<stop  offset="1" style="stop-color:#5A68B9"/>
</linearGradient>
<path class="st26" d="M406.9,125.2v17.1l-26.6-2.1l-1.4,10.7c0.5-0.2,1-0.5,1.6-0.8c0.7-0.3,1.3-0.5,2-0.6c0.9-0.2,1.8-0.3,2.7-0.3
	c1.3-0.1,2.5-0.1,3.8,0c7.7,0.5,14.8,4.5,19.2,10.9c3.7,5.2,5.8,11.5,6,17.9c0,3.3-0.5,6.5-1.5,9.6c-1.1,3.3-2.8,6.4-5,9.1
	c-2.4,2.9-5.4,5.2-8.8,6.7c-4.1,1.7-8.5,2.5-13,2.2c-3.8-0.2-7.6-1-11.1-2.4c-3.2-1.3-6.2-3.2-8.7-5.5c-2.5-2.2-4.5-4.9-6.1-7.8
	c-1.6-2.9-2.7-6.1-3.3-9.3l19.7,1.2c0.4,0.6,0.9,1.2,1.4,1.7c0.4,0.5,0.9,0.9,1.4,1.4c0.4,0.4,0.9,0.7,1.4,1
	c0.4,0.3,0.9,0.5,1.3,0.6c0.4,0.2,0.7,0.3,1.1,0.5l0.9,0.2h1.4c1.3,0.1,2.7-0.1,3.9-0.6c1.2-0.5,2.3-1.2,3.2-2.1
	c0.9-0.9,1.7-2,2.2-3.2c0.5-1.3,0.8-2.7,0.8-4.1c0-1.3-0.2-2.6-0.7-3.9c-0.4-1.3-1.1-2.5-2-3.5c-0.9-1.1-2-2-3.2-2.6
	c-1.4-0.7-2.9-1.1-4.4-1.2c-0.9-0.1-1.9-0.1-2.8,0c-0.9,0.1-1.8,0.5-2.7,0.9c-0.9,0.5-1.7,1.2-2.4,2c-0.8,1-1.4,2.1-1.9,3.3
	l-15.9-5.2l6.2-45.3L406.9,125.2z"/>
</svg>
